Simulation
nRows=34
nColumns=15
endheader
time  TH_x TH_y TH_z SC_y  SC_z  SC_x  AC_y  AC_z  AC_x  GH_y  GH_z  GH_yy  EL_x  PS_y
2.6910411985018725  0.000000  0.000000  0.000000  -29.30100231862084  2.12235991552376  -2.0667212522386906  53.112455504144556  7.414207685886042  -0.49213002461123956  45.24143805117384  6.951584545306168  -7.071274027320544  15.904780475458729  120.000000
2.7312059925093632  0.000000  0.000000  0.000000  -29.285628425095418  2.0297880459319524  -2.0670713598879122  53.49906147341302  7.680549074736188  -0.27373614101137717  59.214744698134254  6.231251741207272  -18.71253354892204  16.650179918840696  120.000000
2.771370786516854  0.000000  0.000000  0.000000  -29.399967030158873  1.9997384688584299  -2.019513269831721  53.82633946357027  7.942613980704996  -0.09186829431407832  74.38875985540523  6.015790803934492  -31.90394606065072  17.30970682498517  120.000000
2.8115355805243447  0.000000  0.000000  0.000000  -29.606651561150596  2.018094140151314  -1.9427125892368187  54.08901721596147  8.190942396565159  0.05124003090281208  88.45548867517577  6.24197128784115  -44.337431982140934  17.85828280054436  120.000000
2.851700374531835  0.000000  0.000000  0.000000  -29.86670623965671  2.07138781370121  -1.8464303351235931  54.29148955091381  8.42336795135513  0.15915253395855983  99.92642791867027  6.776222092327374  -54.50253995483486  18.281589399943723  120.000000
2.8918651685393257  0.000000  0.000000  0.000000  -30.14586065509122  2.1473371835275135  -1.7328602709689718  54.44567138696657  8.642502519996272  0.2390560527695302  108.61927334943097  7.480994344687757  -62.180069770355466  18.5757431712524  120.000000
2.9320299625468165  0.000000  0.000000  0.000000  -30.419258131125634  2.236331495299916  -1.601725161022234  54.56504305512111  8.851597425714756  0.2984864885253717  115.0097182491523  8.254188110523334  -67.80572231910855  18.746842684954643  120.000000
2.972194756554307  0.000000  0.000000  0.000000  -30.671753954589768  2.331267742661121  -1.4538402597239735  54.660964262192635  9.052291639514102  0.3430639523325427  119.66600930121263  9.030778692836922  -71.9104175819492  18.80931212002134  120.000000
3.012359550561798  0.000000  0.000000  0.000000  -30.89663878157657  2.42629534836817  -1.2916899311411347  54.741318713184604  9.244074960987414  0.3765636393651935  123.05370806076006  9.771008685971523  -74.92492253000943  18.783107695781787  120.000000
3.0525243445692882  0.000000  0.000000  0.000000  -31.092888002305333  2.5170742871382776  -1.1188257829091395  54.809245522182124  9.424909910910863  0.401371130534949  125.52328888237905  10.44932122511283  -77.16701923488937  18.691066189473965  120.000000
3.092689138576779  0.000000  0.000000  0.000000  -31.262553863163777  2.6017994345259607  -0.9396497638296694  54.866578412741816  9.592476759771836  0.416961336170295  127.32591735193247  11.050448266742462  -78.85774744701202  18.556159401038848  120.000000
3.1328539325842697  0.000000  0.000000  0.000000  -31.408077556471582  2.679260381397789  -0.7586836104738459  54.91451639371185  9.743926140364655  0.42198533220035295  128.641018177066  11.567140668800986  -80.14868639336288  18.399501203514834  120.000000
3.1730187265917604  0.000000  0.000000  0.000000  -31.53090720115123  2.747069443823645  -0.5804793149975591  54.953840166214434  9.875558179364184  0.4163715204102542  129.59996122213013  11.997590381006079  -81.14594891547195  18.23816399142698  120.000000
3.2131835205992507  0.000000  0.000000  0.000000  -31.631866323931337  2.8028430777398614  -0.40957491056981105  54.98581667943876  9.983734485726353  0.4002081854566111  130.29886746833202  12.343196259734572  -81.92307455086036  18.083739606275234  120.000000
3.2533483146067415  0.000000  0.000000  0.000000  -31.711555066589714  2.844953891565308  -0.25009034222406545  55.01158978353791  10.065409648153679  0.3733426764535053  130.81006623789318  12.606549664456798  -82.53244653157833  17.94193689698623  120.000000
3.293513108614232  0.000000  0.000000  0.000000  -31.770511045555793  2.8722056232997506  -0.10551696640681113  55.03171054209569  10.118095885534316  0.3358153700192744  131.189511127994  12.790458111578692  -83.01261043229327  17.81375577726028  120.000000
3.333677902621723  0.000000  0.000000  0.000000  -31.809271629535267  2.8839069017513133  0.021301890819154467  55.046538370978595  10.13996550841511  0.287696070058259  131.47966247891435  12.89793892350895  -83.39116914765027  17.697330183082425  120.000000
3.3738426966292137  0.000000  0.000000  0.000000  -31.828398086697984  2.8799164671149367  0.1282845107873483  55.05595730054862  10.129853105086646  0.22932782500915877  131.7128541984073  12.931651792180594  -83.6879907032417  17.58974805103981  120.000000
3.414007490636704  0.000000  0.000000  0.000000  -31.828565927972665  2.860651456747588  0.21416554568938095  55.05964189076228  10.087423590551609  0.16116035660935987  131.91189561219358  12.893957688594382  -83.91587986073897  17.488426993323063  120.000000
3.4541722846441947  0.000000  0.000000  0.000000  -31.81065422469949  2.827039941404498  0.27860718509378474  55.056661052599146  10.01312625897225  0.08399525146342907  132.09190895421673  12.786492559211704  -84.08233746294609  17.391778159854958  120.000000
3.4943370786516854  0.000000  0.000000  0.000000  -31.775881118099054  2.7809354064943976  0.32221954194687435  55.04557441605922  9.90851900972278  -0.0013960973363531125  132.26066252403393  12.609928296814735  -84.18996048087658  17.29906035164419  120.000000
3.534501872659176  0.000000  0.000000  0.000000  -31.72563961894059  2.725377623870849  0.3464599170364926  55.02504712330977  9.77632102107727  -0.09459387219944707  132.41628809709064  12.364374963063836  -84.23428970687553  17.209836947210295  120.000000
3.574666666666667  0.000000  0.000000  0.000000  -31.661347784264002  2.663477679789413  0.35374799168305254  54.993678316219096  9.619858861442314  -0.19474761695416967  132.54731264297385  12.050334710034155  -84.20372546765056  17.1233102494505  120.000000
3.614831460674157  0.000000  0.000000  0.000000  -31.584408494657655  2.5978997330656606  0.34711001979774453  54.95043043429502  9.442669083483732  -0.3000136655984598  132.63096840640603  11.669222902216877  -84.0780514851948  17.037614403519466  120.000000
3.654996254681648  0.000000  0.000000  0.000000  -31.49604198703639  2.5313154712952137  0.33009913769751364  54.894641188755664  9.24863770421339  -0.4079937252995416  132.6315580107148  11.223496086352457  -83.82699912626218  16.948973449068053  120.000000
3.6951610486891386  0.000000  0.000000  0.000000  -31.397374928625577  2.466736803728704  0.3065872561793319  54.8258020744275  9.042211390830007  -0.5159366883799678  132.49819127728293  10.716293027986604  -83.40809640590108  16.851347724754262  120.000000
3.7353258426966294  0.000000  0.000000  0.000000  -31.289061597089937  2.4082570973074  0.279934986956187  54.74443334364543  8.828497657940703  -0.6217534010108781  132.15766054906345  10.152192263107889  -82.76022672772584  16.73683003864081  120.000000
3.7754906367041197  0.000000  0.000000  0.000000  -31.171695568039876  2.3605367120221032  0.25312632515502537  54.65106944939097  8.612895667844553  -0.7236555379932691  131.5118888050533  9.537556604619315  -81.80081605183064  16.596294460599623  120.000000
3.8156554307116104  0.000000  0.000000  0.000000  -31.04610245561968  2.32790285344862  0.2289765505574882  54.545471241015875  8.400972998460912  -0.8194190432578281  130.42743791226923  8.881182998986047  -80.41589436414526  16.420285003810445  120.000000
3.855820224719101  0.000000  0.000000  0.000000  -30.913133247296848  2.3146126807271217  0.21002968349024775  54.42754888167311  8.198635899750132  -0.9068496958776441  128.7157505908798  8.19657541322162  -78.44086760344858  16.20020991080753  120.000000
3.895985018726592  0.000000  0.000000  0.000000  -30.77360221826966  2.324952147197075  0.19842590586203268  54.29767665985018  8.011862932287677  -0.983710954407739  126.11292527152393  7.504566767930425  -75.64058965051387  15.929490638518386  120.000000
3.9361498127340826  0.000000  0.000000  0.000000  -30.628800264684813  2.363608565928428  0.1967366299571835  54.156540777030784  7.84715919489411  -1.0475835154212412  122.2591625290631  6.837106894078523  -71.68960351811081  15.604219843658216  120.000000
3.976314606741573  0.000000  0.000000  0.000000  -30.480240610817216  2.4354947422620774  0.2096565920545446  54.00458320406871  7.71354557249126  -1.094863459472298  116.71262457641092  6.238633234895127  -66.18310739197584  15.224059834200856  120.000000
4.016479400749064  0.000000  0.000000  0.000000  -30.326998235219317  2.546087640342459  0.2448153933670685  53.84241221762693  7.62346661387754  -1.120035475638847  109.07120348015893  5.765212377798988  -58.75151269409219  14.794093086618838  120.000000
